<svg width="18" height="17" viewBox="0 0 18 17" fill="none" xmlns="http://www.w3.org/2000/svg">
<path fill-rule="evenodd" clip-rule="evenodd" d="M10.3118 0.237707C10.6227 -0.0767273 11.1296 -0.0795833 11.4441 0.231328L17.7657 6.53705C17.9157 6.68664 18 6.88977 18 7.1016C18 7.31343 17.9157 7.51655 17.7657 7.66615L11.4441 13.9814C11.2436 14.1884 10.947 14.2711 10.6683 14.1977C10.3896 14.1244 10.1722 13.9064 10.0997 13.6275C10.0271 13.3486 10.1106 13.0523 10.3182 12.8523L15.2779 7.90855H2V16.375C2 16.7202 1.55228 17 1 17C0.447715 17 0 16.7202 0 16.375V7.90855V7.625V6.31378H15.2779L10.3182 1.36999C10.0037 1.05908 10.0009 0.55214 10.3118 0.237707Z" fill="#5C5C5C"/>
</svg>
